<?xml version="1.0" encoding="UTF-8"?>
<svg id="Layer_1" data-name="Layer 1" xmlns="http://www.w3.org/2000/svg" viewBox="0 0 65.64 77.77">
  <defs>
    <style>
      .cls-1 {
        fill: #2e3192;
      }

      .cls-2 {
        fill: #ed1c24;
      }

      .cls-3 {
        fill: #231f20;
      }
    </style>
  </defs>
  <path class="cls-1" d="m34.86,35.9v-6c0-.49.4-.91.9-.91s.91.41.91.91v2s22.19,0,22.19,0c.49,0,.89.4.89.89v.33c0,.48-.4.89-.89.89h-22.19s0,1.9,0,1.9c0,.5-.41.91-.91.91s-.9-.4-.9-.91Z"/>
  <path class="cls-2" d="m5.89,35.9v-6c0-.49.4-.91.9-.91s.91.41.91.91v2s22.19,0,22.19,0c.49,0,.89.4.89.89v.33c0,.48-.4.89-.89.89H7.7s0,1.9,0,1.9c0,.5-.41.91-.91.91s-.9-.4-.9-.91Z"/>
  <path class="cls-1" d="m57.3,39.42c-.68.59-2.66,1.97-3.09,3.12-.18.48.31,1.07.34,1.62l3.45-2.87c-.27,8.92-7.83,18.97-20.44,19.77-.75.1-1.25.53-1.16,1.44.09.96.47.96,1.45.87,11.95-1.13,22.05-9.85,22.05-22.1l2.76,3.37c.32-.52.61-1.08.53-1.51-.24-1.22-2.06-3.11-2.54-3.54s-1.46-1.18-1.59-1.28"/>
  <g>
    <path class="cls-3" d="m32.82,65.81c3.22,0,3.22-5,0-5s-3.22,5,0,5h0Z"/>
    <path class="cls-3" d="m2.41,35.4c3.22,0,3.22-5,0-5s-3.22,5,0,5h0Z"/>
    <path class="cls-3" d="m32.82,5c3.22,0,3.22-5,0-5s-3.22,5,0,5h0Z"/>
    <path class="cls-3" d="m63.22,35.4c3.22,0,3.22-5,0-5s-3.22,5,0,5h0Z"/>
    <path class="cls-3" d="m32.82,34.03c1.45,0,1.45-2.25,0-2.25s-1.45,2.25,0,2.25h0Z"/>
  </g>
  <path class="cls-3" d="m29.17,68.76c4.37-1.23,7.49.31,7.54,3.51.1,5.84-7.12,5.72-7.42,5.37-.18-.68-.8-5.16-.12-8.88Zm1.52,7.25c3.72-.43,4.82-1.95,4.47-4.26s-4.06-1.95-4.58-1.7c-.24,3.39-.19,4.11.1,5.97Z"/>
  <path class="cls-2" d="m28.39,41.96c-.55.71-1.12,2.74-2.25,3.23-.47.21-.96.04-1.53-.25l2.12-3.57c-12.9,2.88-11.1,16.38,1.36,18.06.75.1,1.33.71,1.21,1.28-.11.49-.42.95-1.4.8-15.28-2.39-16.18-18.92-1.68-22.05l-3.47-1.88c.5-.34.72-.69,1.48-.76.52-.05,3.03,1.15,3.8,1.8,1.05.88,1.25,1.39,1.36,1.52"/>
  <path d="m41.47,70.55v.9h-3.3v-.9h1.08v-2.56h-1.08v-.94l.36-.04c.25-.02.41-.03.78-.13s.64-.24.64-.24h.44v3.9h1.08Z"/>
</svg>