<?xml version="1.0" encoding="UTF-8"?>
<svg id="Layer_1" data-name="Layer 1" xmlns="http://www.w3.org/2000/svg" viewBox="0 0 65.64 77.83">
  <defs>
    <style>
      .cls-1 {
        fill: #2e3192;
      }

      .cls-2 {
        fill: #ed1c24;
      }

      .cls-3 {
        fill: #231f20;
      }
    </style>
  </defs>
  <path class="cls-2" d="m34.74,38.59v-6c0-.49.4-.91.9-.91s.91.41.91.91v2s22.19,0,22.19,0c.49,0,.89.4.89.89v.33c0,.48-.4.89-.89.89h-22.19s0,1.9,0,1.9c0,.5-.41.91-.91.91s-.9-.4-.9-.91Z"/>
  <path class="cls-1" d="m53.07,26.82s1.04,1.1,1.87.5c1.18-.85,3.95-4.08,3.95-4.08,0,0-3.01-3.77-3.95-4.46-.82-.6-1.44.86-1.44.86l2.21,2.73c-14.88-.05-17.49-2.93-17.19-19.45.08-.39-.96-.59-1.2-.65s-.79.22-.88.61c-.41,18.04,3.56,21.82,19.28,21.17"/>
  <path class="cls-2" d="m53.07,38.75s1.04-1.1,1.87-.5c1.18.85,3.95,4.08,3.95,4.08,0,0-3.01,3.77-3.95,4.46-.82.6-1.44-.86-1.44-.86l2.21-2.73c-14.88.05-17.49,2.93-17.19,19.45.08.39-.96.59-1.2.65s-.79-.22-.88-.61c-.41-18.04,3.56-21.82,19.28-21.17"/>
  <g>
    <path class="cls-3" d="m32.82,5c3.22,0,3.22-5,0-5s-3.22,5,0,5h0Z"/>
    <path class="cls-3" d="m63.22,35.4c3.22,0,3.22-5,0-5s-3.22,5,0,5h0Z"/>
    <path class="cls-3" d="m32.82,65.81c3.22,0,3.22-5,0-5s-3.22,5,0,5h0Z"/>
    <path class="cls-3" d="m2.41,35.4c3.22,0,3.22-5,0-5s-3.22,5,0,5h0Z"/>
    <path class="cls-3" d="m32.82,34.03c1.45,0,1.45-2.25,0-2.25s-1.45,2.25,0,2.25h0Z"/>
  </g>
  <path class="cls-1" d="m59.63,27.22v6c0,.49-.4.91-.9.91s-.91-.41-.91-.91v-2s-22.19,0-22.19,0c-.49,0-.89-.4-.89-.89v-.33c0-.48.4-.89.89-.89h22.19s0-1.9,0-1.9c0-.5.41-.91.91-.91s.9.4.9.91Z"/>
  <path class="cls-3" d="m31.19,74.12c0,1.55,0,2.06,0,2.96,0,.63-.27.75-.76.75s-.89-.28-.89-.83c0-1.1-.04-5.88-.04-8.17,0-.5.33-.54.62-.54.39,0,.82.14.82.55,0,.97.08,3.02.08,3.02,0,0,1.78-1.67,2.39-2.31.39-.42.96-.48,1.24-.13s.44.57-.09,1.1c-.81.8-.99,1.16-2.35,2.41.79.82,2.08,1.9,3.44,3.46.43.49.33,1.08.16,1.24s-.76.22-1.14-.16-1.83-2-3.48-3.34Z"/>
</svg>