<?xml version="1.0" encoding="UTF-8"?>
<svg id="Layer_1" data-name="Layer 1" xmlns="http://www.w3.org/2000/svg" viewBox="0 0 65.64 77.77">
  <defs>
    <style>
      .cls-1 {
        fill: #2e3192;
      }

      .cls-2 {
        fill: #ed1c24;
      }

      .cls-3 {
        fill: #231f20;
      }
    </style>
  </defs>
  <path class="cls-1" d="m35.82,59.83h-6c-.49,0-.91-.4-.91-.9s.41-.91.91-.91h2s0-22.19,0-22.19c0-.49.4-.89.89-.89h.33c.48,0,.89.4.89.89v22.19s1.9,0,1.9,0c.5,0,.91.41.91.91s-.4.9-.91.9Z"/>
  <path class="cls-2" d="m29.82,5.98h6c.49,0,.91.4.91.9s-.41.91-.91.91h-2s0,22.19,0,22.19c0,.49-.4.89-.89.89h-.33c-.48,0-.89-.4-.89-.89V7.79s-1.9,0-1.9,0c-.5,0-.91-.41-.91-.91s.4-.9.91-.9Z"/>
  <path class="cls-1" d="m27.4,57.39c-.59-.68-1.97-2.66-3.12-3.09-.48-.18-1.07.31-1.62.34l2.87,3.45c-8.92-.27-18.97-7.83-19.77-20.44-.1-.75-.53-1.25-1.44-1.16-.96.09-.96.47-.87,1.45,1.13,11.95,9.85,22.05,22.1,22.05l-3.37,2.76c.52.32,1.08.61,1.51.53,1.22-.24,3.11-2.06,3.54-2.54s1.18-1.46,1.28-1.59"/>
  <g>
    <path class="cls-3" d="m2.41,35.4c3.22,0,3.22-5,0-5s-3.22,5,0,5h0Z"/>
    <path class="cls-3" d="m32.82,5c3.22,0,3.22-5,0-5s-3.22,5,0,5h0Z"/>
    <path class="cls-3" d="m63.22,35.4c3.22,0,3.22-5,0-5s-3.22,5,0,5h0Z"/>
    <path class="cls-3" d="m32.82,65.81c3.22,0,3.22-5,0-5s-3.22,5,0,5h0Z"/>
    <path class="cls-3" d="m32.82,34.03c1.45,0,1.45-2.25,0-2.25s-1.45,2.25,0,2.25h0Z"/>
  </g>
  <path class="cls-3" d="m29.11,68.76c4.37-1.23,7.49.31,7.54,3.51.1,5.84-7.12,5.72-7.42,5.37-.18-.68-.8-5.16-.12-8.88Zm1.52,7.25c3.72-.43,4.82-1.95,4.47-4.26s-4.06-1.95-4.58-1.7c-.24,3.39-.19,4.11.1,5.97Z"/>
  <path class="cls-2" d="m25.23,29.86c-.71-.55-2.74-1.12-3.23-2.25-.21-.47-.04-.96.25-1.53l3.57,2.12c-2.88-12.9-16.38-11.1-18.06,1.36-.1.75-.71,1.33-1.28,1.21-.49-.11-.95-.42-.8-1.4,2.39-15.28,18.92-16.18,22.05-1.68l1.88-3.47c.34.5.69.72.76,1.48.05.52-1.15,3.03-1.8,3.8-.88,1.05-1.39,1.25-1.52,1.36"/>
  <path d="m41.42,70.55v.9h-3.3v-.9h1.08v-2.56h-1.08v-.94l.36-.04c.25-.02.41-.03.78-.13s.64-.24.64-.24h.44v3.9h1.08Z"/>
</svg>