<?xml version="1.0" encoding="UTF-8"?>
<svg id="Layer_1" data-name="Layer 1" xmlns="http://www.w3.org/2000/svg" viewBox="0 0 65.64 79.45">
  <defs>
    <style>
      .cls-1 {
        fill: #2e3192;
      }

      .cls-2 {
        fill: #ed1c24;
      }

      .cls-3 {
        fill: #231f20;
      }
    </style>
  </defs>
  <path class="cls-1" d="m5.89,35.9v-6c0-.49.4-.91.9-.91s.91.41.91.91v2s22.19,0,22.19,0c.49,0,.89.4.89.89v.33c0,.48-.4.89-.89.89H7.7s0,1.9,0,1.9c0,.5-.41.91-.91.91s-.9-.4-.9-.91Z"/>
  <path class="cls-2" d="m59.74,29.9v6c0,.49-.4.91-.9.91s-.91-.41-.91-.91v-2s-22.19,0-22.19,0c-.49,0-.89-.4-.89-.89v-.33c0-.48.4-.89.89-.89h22.19s0-1.9,0-1.9c0-.5.41-.91.91-.91s.9.4.9.91Z"/>
  <path class="cls-2" d="m56.83,27.35c-.68-.59-2.66-1.97-3.09-3.12-.18-.48.31-1.07.34-1.62l3.45,2.87c-.27-8.92-7.83-18.97-20.44-19.77-.75-.1-1.25-.53-1.16-1.44.09-.96.47-.96,1.45-.87,11.95,1.13,22.05,9.85,22.05,22.1l2.76-3.37c.32.52.61,1.08.53,1.51-.24,1.22-2.06,3.11-2.54,3.54s-1.46,1.18-1.59,1.28"/>
  <g>
    <path class="cls-3" d="m2.41,35.4c3.22,0,3.22-5,0-5s-3.22,5,0,5h0Z"/>
    <path class="cls-3" d="m32.82,5c3.22,0,3.22-5,0-5s-3.22,5,0,5h0Z"/>
    <path class="cls-3" d="m63.22,35.4c3.22,0,3.22-5,0-5s-3.22,5,0,5h0Z"/>
    <path class="cls-3" d="m32.82,65.81c3.22,0,3.22-5,0-5s-3.22,5,0,5h0Z"/>
    <path class="cls-3" d="m32.82,34.03c1.45,0,1.45-2.25,0-2.25s-1.45,2.25,0,2.25h0Z"/>
  </g>
  <path class="cls-3" d="m36.42,75.75c.41.54-.07,1.1-.49,1.3-8.95,4.44-8.64-9.21-3.2-8.89,1.05.06,2,.83,2.34,1.23.24.29.43.79.12,1.13-.33.35-.78.24-1,0-4.23-4.46-6.5,8.86,1.09,5.13.44-.22.77-.39,1.14.08Z"/>
  <path class="cls-1" d="m11.63,36.95s-.76-1.14-1.57-.52c-1.15.89-3.85,4.4-3.85,4.4,0,0,3.41,4.05,4.48,4.52.47.2.99-1.12.99-1.12l-2.22-2.7c8.49-.9,9.16,3.56,7.5,10.24,5.25-2.1,11.96-3.78,11.73,8.59.07.69.48.82.72.81s.9-.52.93-1.15c.61-8.36-3.06-13.16-10.68-11.15.03-7.39-2.02-9.19-10.2-9.27"/>
  <path d="m41.42,78.55v.9h-3.3v-.9h1.08v-2.56h-1.08v-.94l.36-.04c.25-.02.41-.03.78-.13s.64-.24.64-.24h.44v3.9h1.08Z"/>
</svg>