<?xml version="1.0" encoding="UTF-8"?>
<svg id="Layer_1" data-name="Layer 1" xmlns="http://www.w3.org/2000/svg" viewBox="0 0 65.64 82.27">
  <defs>
    <style>
      .cls-1 {
        fill: #2e3192;
      }

      .cls-2 {
        fill: #ed1c24;
      }

      .cls-3 {
        fill: #231f20;
      }
    </style>
  </defs>
  <path class="cls-2" d="m38.52,55.25c-.06-.9-.48-3.27.04-4.39.22-.47.97-.54,1.39-.9l.29,4.21c9.61-13.99,9.13-33.63-1.69-47.84-.44-.58-.42-1.53.02-1.85.25-.21,1.07-.53,1.68.25,11.52,14.73,12.07,36.15,1.85,50.98l3.93-.34c-.14.59-.34,1.2-.7,1.44-1.03.69-3.66.73-4.3.69s-1.86-.2-2.03-.23"/>
  <path class="cls-1" d="m27.11,55.25c.06-.9.48-3.27-.04-4.39-.22-.47-.97-.54-1.39-.9l-.29,4.21c-9.61-13.99-9.13-33.63,1.69-47.84.44-.58.42-1.53-.02-1.85-.25-.21-1.07-.53-1.68.25-11.52,14.73-12.07,36.15-1.85,50.98l-3.93-.34c.14.59.34,1.2.7,1.44,1.03.69,3.66.73,4.3.69s1.86-.2,2.03-.23"/>
  <g>
    <path class="cls-3" d="m2.41,35.4c3.22,0,3.22-5,0-5s-3.22,5,0,5h0Z"/>
    <path class="cls-3" d="m32.82,5c3.22,0,3.22-5,0-5s-3.22,5,0,5h0Z"/>
    <path class="cls-3" d="m63.22,35.4c3.22,0,3.22-5,0-5s-3.22,5,0,5h0Z"/>
    <path class="cls-3" d="m32.82,65.81c3.22,0,3.22-5,0-5s-3.22,5,0,5h0Z"/>
    <path class="cls-3" d="m32.82,34.03c1.45,0,1.45-2.25,0-2.25s-1.45,2.25,0,2.25h0Z"/>
  </g>
  <path class="cls-2" d="m38.5,34.82h-6c-.49,0-.91.4-.91.9s.41.91.91.91h2s0,22.19,0,22.19c0,.49.4.89.89.89h.33c.48,0,.89-.4.89-.89v-22.19s1.9,0,1.9,0c.5,0,.91-.41.91-.91s-.4-.9-.91-.9Z"/>
  <path class="cls-1" d="m33.14,34.82h-6c-.49,0-.91.4-.91.9s.41.91.91.91h2s0,22.19,0,22.19c0,.49.4.89.89.89h.33c.48,0,.89-.4.89-.89v-22.19s1.9,0,1.9,0c.5,0,.91-.41.91-.91s-.4-.9-.91-.9Z"/>
  <path class="cls-3" d="m37.56,69.21c-.55,2.78-1.08,3.77-3.79,4.29-.09.02-.17.09-.18.18,0,0,0,.02,0,.03v4.09c0,.23-.1.45-.25.61-.15.15-.36.25-.6.25s-.45-.1-.62-.25c-.15-.15-.25-.37-.25-.61v-4.09s0-.02,0-.03c0-.09-.09-.16-.18-.18-2.71-.53-3.24-1.51-3.79-4.29-.19-.91.32-1.09.66-1.09.45,0,.75.91.77,1.04.3,2.03.88,2.76,2.34,2.72.08,0,.16-.06.19-.14,0-.02.02-.05.02-.08v-3.37s0-.03,0-.05c.11-.32.2-.52.32-.64.06-.06.14-.1.21-.12.05-.02.1-.03.15-.04.06,0,.11,0,.18,0,.06,0,.11,0,.16,0,.05,0,.1.02.15.04.08.02.15.06.21.12.12.12.21.32.32.64,0,.02,0,.03,0,.05v3.37s0,.06,0,.08c.03.08.11.13.19.14,1.46.04,2.04-.69,2.34-2.72.02-.14.32-1.05.77-1.04.35,0,.85.19.66,1.09Z"/>
  <rect class="cls-3" x="37.6" y="72.1" width="6.95" height="1.9" rx=".95" ry=".95"/>
  <path class="cls-3" d="m32.82,82.27c1.45,0,1.45-2.25,0-2.25s-1.45,2.25,0,2.25h0Z"/>
  <path d="m49.29,70.55v.9h-3.3v-.9h1.08v-2.56h-1.08v-.94l.36-.04c.25-.02.41-.03.78-.13s.64-.24.64-.24h.44v3.9h1.08Z"/>
  <path d="m49.29,78.55v.9h-3.3v-.9h1.08v-2.56h-1.08v-.94l.36-.04c.25-.02.41-.03.78-.13s.64-.24.64-.24h.44v3.9h1.08Z"/>
</svg>