<?xml version="1.0" encoding="UTF-8"?>
<svg id="Layer_1" data-name="Layer 1" xmlns="http://www.w3.org/2000/svg" viewBox="0 0 65.64 79.45">
  <defs>
    <style>
      .cls-1 {
        fill: #2e3192;
      }

      .cls-2 {
        fill: #ed1c24;
      }

      .cls-3 {
        fill: #231f20;
      }
    </style>
  </defs>
  <path class="cls-1" d="m29.82,34.94h6c.49,0,.91.4.91.9s-.41.91-.91.91h-2s0,22.19,0,22.19c0,.49-.4.89-.89.89h-.33c-.48,0-.89-.4-.89-.89v-22.19s-1.9,0-1.9,0c-.5,0-.91-.41-.91-.91s.4-.9.91-.9Z"/>
  <path class="cls-2" d="m29.82,5.98h6c.49,0,.91.4.91.9s-.41.91-.91.91h-2s0,22.19,0,22.19c0,.49-.4.89-.89.89h-.33c-.48,0-.89-.4-.89-.89V7.79s-1.9,0-1.9,0c-.5,0-.91-.41-.91-.91s.4-.9.91-.9Z"/>
  <path class="cls-2" d="m27.02,8.89c-.59.68-1.97,2.66-3.12,3.09-.48.18-1.07-.31-1.62-.34l2.87-3.45c-8.92.27-18.97,7.83-19.77,20.44-.1.75-.53,1.25-1.44,1.16-.96-.09-.96-.47-.87-1.45C4.2,16.38,12.91,6.27,25.16,6.27l-3.37-2.76c.52-.32,1.08-.61,1.51-.53,1.22.24,3.11,2.06,3.54,2.54s1.18,1.46,1.28,1.59"/>
  <g>
    <path class="cls-3" d="m32.82,65.81c3.22,0,3.22-5,0-5s-3.22,5,0,5h0Z"/>
    <path class="cls-3" d="m2.41,35.4c3.22,0,3.22-5,0-5s-3.22,5,0,5h0Z"/>
    <path class="cls-3" d="m32.82,5c3.22,0,3.22-5,0-5s-3.22,5,0,5h0Z"/>
    <path class="cls-3" d="m63.22,35.4c3.22,0,3.22-5,0-5s-3.22,5,0,5h0Z"/>
    <path class="cls-3" d="m32.82,34.03c1.45,0,1.45-2.25,0-2.25s-1.45,2.25,0,2.25h0Z"/>
  </g>
  <path class="cls-3" d="m36.48,75.75c.41.54-.07,1.1-.49,1.3-8.95,4.44-8.64-9.21-3.2-8.89,1.05.06,2,.83,2.34,1.23.24.29.43.79.12,1.13-.33.35-.78.24-1,0-4.23-4.46-6.5,8.86,1.09,5.13.44-.22.77-.39,1.14.08Z"/>
  <path class="cls-1" d="m38.81,55.84s-1.14.76-.52,1.57c.89,1.15,4.4,3.85,4.4,3.85,0,0,4.05-3.41,4.52-4.48.2-.47-1.12-.99-1.12-.99l-2.7,2.22c-.9-8.49,3.56-9.16,10.24-7.5-2.1-5.25-3.78-11.96,8.59-11.73.69-.07.82-.48.81-.72s-.52-.9-1.15-.93c-8.36-.61-13.16,3.06-11.15,10.68-7.39-.03-9.19,2.02-9.27,10.2"/>
  <path d="m39.25,75.99h-1.08v-.94l.36-.04c.25-.02.41-.03.78-.13s.64-.24.64-.24h.44v3.9h1.08v.9h-3.3v-.9h1.08"/>
</svg>