<?xml version="1.0" encoding="UTF-8"?>
<svg id="Layer_1" data-name="Layer 1" xmlns="http://www.w3.org/2000/svg" viewBox="0 0 413.11 405.99">
  <defs>
    <style>
      .cls-1 {
        fill: #fff;
        stroke: #231f20;
        stroke-miterlimit: 10;
        stroke-width: .5px;
      }

      .cls-2 {
        font-family: Cambria-Italic, Cambria;
        font-size: 14px;
        font-style: italic;
      }

      .cls-2, .cls-3, .cls-4 {
        fill: #231f20;
      }

      .cls-3 {
        font-family: Cambria, Cambria;
        font-size: 12px;
      }

      .cls-5 {
        fill: #2e3192;
      }

      .cls-6 {
        fill: #ed1c24;
      }
    </style>
  </defs>
  <rect class="cls-1" width="413.11" height="405.99"/>
  <g>
    <text class="cls-3" transform="translate(46.09 226.97)"><tspan x="0" y="0">1</tspan></text>
    <text class="cls-3" transform="translate(136.09 226.97)"><tspan x="0" y="0">2</tspan></text>
    <text class="cls-3" transform="translate(226.09 226.97)"><tspan x="0" y="0">3</tspan></text>
    <text class="cls-3" transform="translate(316.09 226.97)"><tspan x="0" y="0">4</tspan></text>
    <text class="cls-3" transform="translate(46.09 316.97)"><tspan x="0" y="0">5</tspan></text>
    <text class="cls-3" transform="translate(136.09 316.97)"><tspan x="0" y="0">6</tspan></text>
    <text class="cls-3" transform="translate(226.09 316.97)"><tspan x="0" y="0">7</tspan></text>
    <text class="cls-3" transform="translate(316.09 316.97)"><tspan x="0" y="0">8</tspan></text>
  </g>
  <g>
    <text class="cls-3" transform="translate(46.09 36.97)"><tspan x="0" y="0">1</tspan></text>
    <text class="cls-3" transform="translate(136.09 36.97)"><tspan x="0" y="0">2</tspan></text>
    <text class="cls-3" transform="translate(226.09 36.97)"><tspan x="0" y="0">3</tspan></text>
    <text class="cls-3" transform="translate(316.09 36.97)"><tspan x="0" y="0">4</tspan></text>
    <text class="cls-3" transform="translate(46.09 126.97)"><tspan x="0" y="0">5</tspan></text>
    <text class="cls-3" transform="translate(136.09 126.97)"><tspan x="0" y="0">6</tspan></text>
    <text class="cls-3" transform="translate(226.09 126.97)"><tspan x="0" y="0">7</tspan></text>
    <text class="cls-3" transform="translate(316.09 126.97)"><tspan x="0" y="0">8</tspan></text>
  </g>
  <path class="cls-5" d="m91.03,66.98v-6c0-.49.4-.91.9-.91s.91.41.91.91v2s22.19,0,22.19,0c.49,0,.89.4.89.89v.33c0,.48-.4.89-.89.89h-22.19s0,1.9,0,1.9c0,.5-.41.91-.91.91s-.9-.4-.9-.91Z"/>
  <path class="cls-6" d="m267.07,58.29v6c0,.49-.4.91-.9.91s-.91-.41-.91-.91v-2s-22.19,0-22.19,0c-.49,0-.89-.4-.89-.89v-.33c0-.48.4-.89.89-.89h22.19s0-1.9,0-1.9c0-.5.41-.91.91-.91s.9.4.9.91Z"/>
  <path class="cls-6" d="m62.06,66.98v-6c0-.49.4-.91.9-.91s.91.41.91.91v2s22.19,0,22.19,0c.49,0,.89.4.89.89v.33c0,.48-.4.89-.89.89h-22.19s0,1.9,0,1.9c0,.5-.41.91-.91.91s-.9-.4-.9-.91Z"/>
  <path class="cls-5" d="m175.99,66.01h6c.49,0,.91.4.91.9s-.41.91-.91.91h-2s0,22.19,0,22.19c0,.49-.4.89-.89.89h-.33c-.48,0-.89-.4-.89-.89v-22.19s-1.9,0-1.9,0c-.5,0-.91-.41-.91-.91s.4-.9.91-.9Z"/>
  <path class="cls-6" d="m175.99,37.05h6c.49,0,.91.4.91.9s-.41.91-.91.91h-2s0,22.19,0,22.19c0,.49-.4.89-.89.89h-.33c-.48,0-.89-.4-.89-.89v-22.19s-1.9,0-1.9,0c-.5,0-.91-.41-.91-.91s.4-.9.91-.9Z"/>
  <path class="cls-6" d="m381.33,58.27c-.9.06-3.27.48-4.39-.04-.47-.22-.54-.97-.9-1.39l4.21-.29c-13.99-9.61-33.63-9.13-47.84,1.69-.58.44-1.53.42-1.85-.02-.21-.25-.53-1.07.25-1.68,14.73-11.52,36.15-12.07,50.98-1.85l-.34-3.93c.59.14,1.2.34,1.44.7.69,1.03.73,3.66.69,4.3s-.2,1.86-.23,2.03"/>
  <path class="cls-5" d="m381.33,69.68c-.9-.06-3.27-.48-4.39.04-.47.22-.54.97-.9,1.39l4.21.29c-13.99,9.61-33.63,9.13-47.84-1.69-.58-.44-1.53-.42-1.85.02-.21.25-.53,1.07.25,1.68,14.73,11.52,36.15,12.07,50.98,1.85l-.34,3.93c.59-.14,1.2-.34,1.44-.7.69-1.03.73-3.66.69-4.3s-.2-1.86-.23-2.03"/>
  <path class="cls-5" d="m113.47,70.49c-.68.59-2.66,1.97-3.09,3.12-.18.48.31,1.07.34,1.62l3.45-2.87c-.27,8.92-7.83,18.97-20.44,19.77-.75.1-1.25.53-1.16,1.44.09.96.47.96,1.45.87,11.95-1.13,22.05-9.85,22.05-22.1l2.76,3.37c.32-.52.61-1.08.53-1.51-.24-1.22-2.06-3.11-2.54-3.54s-1.46-1.18-1.59-1.28"/>
  <path class="cls-6" d="m173.19,39.96c-.59.68-1.97,2.66-3.12,3.09-.48.18-1.07-.31-1.62-.34l2.87-3.45c-8.92.27-18.97,7.83-19.77,20.44-.1.75-.53,1.25-1.44,1.16-.96-.09-.96-.47-.87-1.45,1.13-11.95,9.85-22.05,22.1-22.05l-3.37-2.76c.52-.32,1.08-.61,1.51-.53,1.22.24,3.11,2.06,3.54,2.54s1.18,1.46,1.28,1.59"/>
  <g>
    <path class="cls-4" d="m119.39,256.47c3.22,0,3.22-5,0-5s-3.22,5,0,5h0Z"/>
    <path class="cls-4" d="m88.99,226.07c3.22,0,3.22-5,0-5s-3.22,5,0,5h0Z"/>
    <path class="cls-4" d="m58.59,256.47c3.22,0,3.22-5,0-5s-3.22,5,0,5h0Z"/>
    <path class="cls-4" d="m88.99,286.88c3.22,0,3.22-5,0-5s-3.22,5,0,5h0Z"/>
    <path class="cls-4" d="m88.99,255.1c1.45,0,1.45-2.25,0-2.25s-1.45,2.25,0,2.25h0Z"/>
  </g>
  <path class="cls-5" d="m248.74,70.06s-1.04-1.1-1.87-.5c-1.18.85-3.95,4.08-3.95,4.08,0,0,3.01,3.77,3.95,4.46.82.6,1.44-.86,1.44-.86l-2.21-2.73c14.88.05,17.49,2.93,17.19,19.45-.08.39.96.59,1.2.65s.79-.22.88-.61c.41-18.04-3.56-21.82-19.28-21.17"/>
  <path class="cls-6" d="m248.74,57.89s-1.04,1.1-1.87.5c-1.18-.85-3.95-4.08-3.95-4.08,0,0,3.01-3.77,3.95-4.46.82-.6,1.44.86,1.44.86l-2.21,2.73c14.88-.05,17.49-2.93,17.19-19.45-.08-.39.96-.59,1.2-.65s.79.22.88.61c.41,18.04-3.56,21.82-19.28,21.17"/>
  <g>
    <path class="cls-4" d="m88.99,96.88c3.22,0,3.22-5,0-5s-3.22,5,0,5h0Z"/>
    <path class="cls-4" d="m58.58,66.47c3.22,0,3.22-5,0-5s-3.22,5,0,5h0Z"/>
    <path class="cls-4" d="m88.99,36.07c3.22,0,3.22-5,0-5s-3.22,5,0,5h0Z"/>
    <path class="cls-4" d="m119.39,66.47c3.22,0,3.22-5,0-5s-3.22,5,0,5h0Z"/>
    <path class="cls-4" d="m88.99,65.1c1.45,0,1.45-2.25,0-2.25s-1.45,2.25,0,2.25h0Z"/>
  </g>
  <g>
    <path class="cls-4" d="m178.99,96.88c3.22,0,3.22-5,0-5s-3.22,5,0,5h0Z"/>
    <path class="cls-4" d="m148.58,66.47c3.22,0,3.22-5,0-5s-3.22,5,0,5h0Z"/>
    <path class="cls-4" d="m178.99,36.07c3.22,0,3.22-5,0-5s-3.22,5,0,5h0Z"/>
    <path class="cls-4" d="m209.39,66.47c3.22,0,3.22-5,0-5s-3.22,5,0,5h0Z"/>
    <path class="cls-4" d="m178.99,65.1c1.45,0,1.45-2.25,0-2.25s-1.45,2.25,0,2.25h0Z"/>
  </g>
  <g>
    <path class="cls-4" d="m268.99,96.88c3.22,0,3.22-5,0-5s-3.22,5,0,5h0Z"/>
    <path class="cls-4" d="m238.58,66.47c3.22,0,3.22-5,0-5s-3.22,5,0,5h0Z"/>
    <path class="cls-4" d="m268.99,36.07c3.22,0,3.22-5,0-5s-3.22,5,0,5h0Z"/>
    <path class="cls-4" d="m299.39,66.47c3.22,0,3.22-5,0-5s-3.22,5,0,5h0Z"/>
    <path class="cls-4" d="m268.99,65.1c1.45,0,1.45-2.25,0-2.25s-1.45,2.25,0,2.25h0Z"/>
  </g>
  <g>
    <path class="cls-4" d="m358.99,96.88c3.22,0,3.22-5,0-5s-3.22,5,0,5h0Z"/>
    <path class="cls-4" d="m328.58,66.47c3.22,0,3.22-5,0-5s-3.22,5,0,5h0Z"/>
    <path class="cls-4" d="m358.99,36.07c3.22,0,3.22-5,0-5s-3.22,5,0,5h0Z"/>
    <path class="cls-4" d="m389.39,66.47c3.22,0,3.22-5,0-5s-3.22,5,0,5h0Z"/>
    <path class="cls-4" d="m358.99,65.1c1.45,0,1.45-2.25,0-2.25s-1.45,2.25,0,2.25h0Z"/>
  </g>
  <path class="cls-5" d="m242.18,69.66v-6c0-.49.4-.91.9-.91s.91.41.91.91v2s22.19,0,22.19,0c.49,0,.89.4.89.89v.33c0,.48-.4.89-.89.89h-22.19s0,1.9,0,1.9c0,.5-.41.91-.91.91s-.9-.4-.9-.91Z"/>
  <path class="cls-6" d="m360.91,58.29v6c0,.49.4.91.9.91s.91-.41.91-.91v-2s22.19,0,22.19,0c.49,0,.89-.4.89-.89v-.33c0-.48-.4-.89-.89-.89h-22.19s0-1.9,0-1.9c0-.5-.41-.91-.91-.91s-.9.4-.9.91Z"/>
  <path class="cls-5" d="m385.79,69.66v-6c0-.49-.4-.91-.9-.91s-.91.41-.91.91v2s-22.19,0-22.19,0c-.49,0-.89.4-.89.89v.33c0,.48.4.89.89.89h22.19s0,1.9,0,1.9c0,.5.41.91.91.91s.9-.4.9-.91Z"/>
  <path class="cls-5" d="m85.99,127.05h6c.49,0,.91.4.91.9s-.41.91-.91.91h-2s0,22.19,0,22.19c0,.49-.4.89-.89.89h-.33c-.48,0-.89-.4-.89-.89v-22.19s-1.9,0-1.9,0c-.5,0-.91-.41-.91-.91s.4-.9.91-.9Z"/>
  <path class="cls-6" d="m263.3,155.9h6c.49,0,.91.4.91.9s-.41.91-.91.91h-2s0,22.19,0,22.19c0,.49-.4.89-.89.89h-.33c-.48,0-.89-.4-.89-.89v-22.19s-1.9,0-1.9,0c-.5,0-.91-.41-.91-.91s.4-.9.91-.9Z"/>
  <path class="cls-6" d="m91.99,180.9h-6c-.49,0-.91-.4-.91-.9s.41-.91.91-.91h2s0-22.19,0-22.19c0-.49.4-.89.89-.89h.33c.48,0,.89.4.89.89v22.19s1.9,0,1.9,0c.5,0,.91.41.91.91s-.4.9-.91.9Z"/>
  <path class="cls-5" d="m205.91,150.97v6c0,.49-.4.91-.9.91s-.91-.41-.91-.91v-2s-22.19,0-22.19,0c-.49,0-.89-.4-.89-.89v-.33c0-.48.4-.89.89-.89h22.19s0-1.9,0-1.9c0-.5.41-.91.91-.91s.9.4.9.91Z"/>
  <path class="cls-6" d="m152.06,156.98v-6c0-.49.4-.91.9-.91s.91.41.91.91v2s22.19,0,22.19,0c.49,0,.89.4.89.89v.33c0,.48-.4.89-.89.89h-22.19s0,1.9,0,1.9c0,.5-.41.91-.91.91s-.9-.4-.9-.91Z"/>
  <path class="cls-6" d="m353.28,131.63c.06.9.48,3.27-.04,4.39-.22.47-.97.54-1.39.9l-.29-4.21c-9.61,13.99-9.13,33.63,1.69,47.84.44.58.42,1.53-.02,1.85-.25.21-1.07.53-1.68-.25-11.52-14.73-12.07-36.15-1.85-50.98l-3.93.34c.14-.59.34-1.2.7-1.44,1.03-.69,3.66-.73,4.3-.69.62.04,1.86.2,2.03.23"/>
  <path class="cls-5" d="m364.69,131.63c-.06.9-.48,3.27.04,4.39.22.47.97.54,1.39.9l.29-4.21c9.61,13.99,9.13,33.63-1.69,47.84-.44.58-.42,1.53.02,1.85.25.21,1.07.53,1.68-.25,11.52-14.73,12.07-36.15,1.85-50.98l3.93.34c-.14-.59-.34-1.2-.7-1.44-1.03-.69-3.66-.73-4.3-.69s-1.86.2-2.03.23"/>
  <path class="cls-5" d="m95.4,129.49c.59.68,1.97,2.66,3.12,3.09.48.18,1.07-.31,1.62-.34l-2.87-3.45c8.92.27,18.97,7.83,19.77,20.44.1.75.53,1.25,1.44,1.16.96-.09.96-.47.87-1.45-1.13-11.95-9.85-22.05-22.1-22.05l3.37-2.76c-.52-.32-1.08-.61-1.51-.53-1.22.24-3.11,2.06-3.54,2.54s-1.18,1.46-1.28,1.59"/>
  <path class="cls-6" d="m154.98,159.58c.68.59,2.66,1.97,3.09,3.12.18.48-.31,1.07-.34,1.62l-3.45-2.87c.27,8.92,7.83,18.97,20.44,19.77.75.1,1.25.53,1.16,1.44-.09.96-.47.96-1.45.87-11.95-1.13-22.05-9.85-22.05-22.1l-2.76,3.37c-.32-.52-.61-1.08-.53-1.51.24-1.22,2.06-3.11,2.54-3.54s1.46-1.18,1.59-1.28"/>
  <path class="cls-5" d="m274.1,174.23s-1.1,1.04-.5,1.87c.85,1.18,4.08,3.95,4.08,3.95,0,0,3.77-3.01,4.46-3.95.6-.82-.86-1.44-.86-1.44l-2.73,2.21c.05-14.88,2.93-17.49,19.45-17.19.39.08.59-.96.65-1.2s-.22-.79-.61-.88c-18.04-.41-21.82,3.56-21.17,19.28"/>
  <path class="cls-6" d="m263.87,174.23s1.1,1.04.5,1.87c-.85,1.18-4.08,3.95-4.08,3.95,0,0-3.77-3.01-4.46-3.95-.6-.82.86-1.44.86-1.44l2.73,2.21c-.05-14.88-2.93-17.49-19.45-17.19-.39.08-.59-.96-.65-1.2s.22-.79.61-.88c18.04-.41,21.82,3.56,21.17,19.28"/>
  <g>
    <path class="cls-4" d="m119.39,156.47c3.22,0,3.22-5,0-5s-3.22,5,0,5h0Z"/>
    <path class="cls-4" d="m88.99,186.88c3.22,0,3.22-5,0-5s-3.22,5,0,5h0Z"/>
    <path class="cls-4" d="m58.58,156.47c3.22,0,3.22-5,0-5s-3.22,5,0,5h0Z"/>
    <path class="cls-4" d="m88.99,126.07c3.22,0,3.22-5,0-5s-3.22,5,0,5h0Z"/>
    <path class="cls-4" d="m88.99,155.1c1.45,0,1.45-2.25,0-2.25s-1.45,2.25,0,2.25h0Z"/>
  </g>
  <g>
    <path class="cls-4" d="m209.39,156.47c3.22,0,3.22-5,0-5s-3.22,5,0,5h0Z"/>
    <path class="cls-4" d="m178.99,186.88c3.22,0,3.22-5,0-5s-3.22,5,0,5h0Z"/>
    <path class="cls-4" d="m148.58,156.47c3.22,0,3.22-5,0-5s-3.22,5,0,5h0Z"/>
    <path class="cls-4" d="m178.99,126.07c3.22,0,3.22-5,0-5s-3.22,5,0,5h0Z"/>
    <path class="cls-4" d="m178.99,155.1c1.45,0,1.45-2.25,0-2.25s-1.45,2.25,0,2.25h0Z"/>
  </g>
  <g>
    <path class="cls-4" d="m299.39,156.47c3.22,0,3.22-5,0-5s-3.22,5,0,5h0Z"/>
    <path class="cls-4" d="m268.99,186.88c3.22,0,3.22-5,0-5s-3.22,5,0,5h0Z"/>
    <path class="cls-4" d="m238.58,156.47c3.22,0,3.22-5,0-5s-3.22,5,0,5h0Z"/>
    <path class="cls-4" d="m268.99,126.07c3.22,0,3.22-5,0-5s-3.22,5,0,5h0Z"/>
    <path class="cls-4" d="m268.99,155.1c1.45,0,1.45-2.25,0-2.25s-1.45,2.25,0,2.25h0Z"/>
  </g>
  <g>
    <path class="cls-4" d="m389.39,156.47c3.22,0,3.22-5,0-5s-3.22,5,0,5h0Z"/>
    <path class="cls-4" d="m358.99,186.88c3.22,0,3.22-5,0-5s-3.22,5,0,5h0Z"/>
    <path class="cls-4" d="m328.58,156.47c3.22,0,3.22-5,0-5s-3.22,5,0,5h0Z"/>
    <path class="cls-4" d="m358.99,126.07c3.22,0,3.22-5,0-5s-3.22,5,0,5h0Z"/>
    <path class="cls-4" d="m358.99,155.1c1.45,0,1.45-2.25,0-2.25s-1.45,2.25,0,2.25h0Z"/>
  </g>
  <path class="cls-5" d="m268.67,155.9h6c.49,0,.91.4.91.9s-.41.91-.91.91h-2s0,22.19,0,22.19c0,.49-.4.89-.89.89h-.33c-.48,0-.89-.4-.89-.89v-22.19s-1.9,0-1.9,0c-.5,0-.91-.41-.91-.91s.4-.9.91-.9Z"/>
  <path class="cls-6" d="m353.3,152.05h6c.49,0,.91-.4.91-.9s-.41-.91-.91-.91h-2s0-22.19,0-22.19c0-.49-.4-.89-.89-.89h-.33c-.48,0-.89.4-.89.89v22.19s-1.9,0-1.9,0c-.5,0-.91.41-.91.91s.4.9.91.9Z"/>
  <path class="cls-5" d="m358.67,152.05h6c.49,0,.91-.4.91-.9s-.41-.91-.91-.91h-2s0-22.19,0-22.19c0-.49-.4-.89-.89-.89h-.33c-.48,0-.89.4-.89.89v22.19s-1.9,0-1.9,0c-.5,0-.91.41-.91.91s.4.9.91.9Z"/>
  <path class="cls-5" d="m87.01,250.97v6c0,.49-.4.91-.9.91s-.91-.41-.91-.91v-2s-22.19,0-22.19,0c-.49,0-.89-.4-.89-.89v-.33c0-.48.4-.89.89-.89h22.19s0-1.9,0-1.9c0-.5.41-.91.91-.91s.9.4.9.91Z"/>
  <path class="cls-6" d="m270.97,259.66v-6c0-.49.4-.91.9-.91s.91.41.91.91v2s22.19,0,22.19,0c.49,0,.89.4.89.89v.33c0,.48-.4.89-.89.89h-22.19s0,1.9,0,1.9c0,.5-.41.91-.91.91s-.9-.4-.9-.91Z"/>
  <path class="cls-6" d="m115.97,250.97v6c0,.49-.4.91-.9.91s-.91-.41-.91-.91v-2s-22.19,0-22.19,0c-.49,0-.89-.4-.89-.89v-.33c0-.48.4-.89.89-.89h22.19s0-1.9,0-1.9c0-.5.41-.91.91-.91s.9.4.9.91Z"/>
  <path class="cls-5" d="m182.05,251.93h-6c-.49,0-.91-.4-.91-.9s.41-.91.91-.91h2s0-22.19,0-22.19c0-.49.4-.89.89-.89h.33c.48,0,.89.4.89.89v22.19s1.9,0,1.9,0c.5,0,.91.41.91.91s-.4.9-.91.9Z"/>
  <path class="cls-6" d="m182.05,280.9h-6c-.49,0-.91-.4-.91-.9s.41-.91.91-.91h2s0-22.19,0-22.19c0-.49.4-.89.89-.89h.33c.48,0,.89.4.89.89v22.19s1.9,0,1.9,0c.5,0,.91.41.91.91s-.4.9-.91.9Z"/>
  <path class="cls-6" d="m336.7,259.68c.9-.06,3.27-.48,4.39.04.47.22.54.97.9,1.39l-4.21.29c13.99,9.61,33.63,9.13,47.84-1.69.58-.44,1.53-.42,1.85.02.21.25.53,1.07-.25,1.68-14.73,11.52-36.15,12.07-50.98,1.85l.34,3.93c-.59-.14-1.2-.34-1.44-.7-.69-1.03-.73-3.66-.69-4.3s.2-1.86.23-2.03"/>
  <path class="cls-5" d="m336.7,248.27c.9.06,3.27.48,4.39-.04.47-.22.54-.97.9-1.39l-4.21-.29c13.99-9.61,33.63-9.13,47.84,1.69.58.44,1.53.42,1.85-.02.21-.25.53-1.07-.25-1.68-14.73-11.52-36.15-12.07-50.98-1.85l.34-3.93c-.59.14-1.2.34-1.44.7-.69,1.03-.73,3.66-.69,4.3s.2,1.86.23,2.03"/>
  <path class="cls-5" d="m64.56,248.37c.68-.59,2.66-1.97,3.09-3.12.18-.48-.31-1.07-.34-1.62l-3.45,2.87c.27-8.92,7.83-18.97,20.44-19.77.75-.1,1.25-.53,1.16-1.44-.09-.96-.47-.96-1.45-.87-11.95,1.13-22.05,9.85-22.05,22.1l-2.76-3.37c-.32.52-.61,1.08-.53,1.51.24,1.22,2.06,3.11,2.54,3.54s1.46,1.18,1.59,1.28"/>
  <path class="cls-6" d="m184.84,277.98c.59-.68,1.97-2.66,3.12-3.09.48-.18,1.07.31,1.62.34l-2.87,3.45c8.92-.27,18.97-7.83,19.77-20.44.1-.75.53-1.25,1.44-1.16.96.09.96.47.87,1.45-1.13,11.95-9.85,22.05-22.1,22.05l3.37,2.76c-.52.32-1.08.61-1.51.53-1.22-.24-3.11-2.06-3.54-2.54s-1.18-1.46-1.28-1.59"/>
  <path class="cls-5" d="m289.3,247.88s1.04,1.1,1.87.5c1.18-.85,3.95-4.08,3.95-4.08,0,0-3.01-3.77-3.95-4.46-.82-.6-1.44.86-1.44.86l2.21,2.73c-14.88-.05-17.49-2.93-17.19-19.45.08-.39-.96-.59-1.2-.65s-.79.22-.88.61c-.41,18.04,3.56,21.82,19.28,21.17"/>
  <path class="cls-6" d="m289.3,259.82s1.04-1.1,1.87-.5c1.18.85,3.95,4.08,3.95,4.08,0,0-3.01,3.77-3.95,4.46-.82.6-1.44-.86-1.44-.86l2.21-2.73c-14.88.05-17.49,2.93-17.19,19.45.08.39-.96.59-1.2.65s-.79-.22-.88-.61c-.41-18.04,3.56-21.82,19.28-21.17"/>
  <g>
    <path class="cls-4" d="m179.05,226.07c3.22,0,3.22-5,0-5s-3.22,5,0,5h0Z"/>
    <path class="cls-4" d="m209.45,256.47c3.22,0,3.22-5,0-5s-3.22,5,0,5h0Z"/>
    <path class="cls-4" d="m179.05,286.88c3.22,0,3.22-5,0-5s-3.22,5,0,5h0Z"/>
    <path class="cls-4" d="m148.64,256.47c3.22,0,3.22-5,0-5s-3.22,5,0,5h0Z"/>
    <path class="cls-4" d="m179.05,255.1c1.45,0,1.45-2.25,0-2.25s-1.45,2.25,0,2.25h0Z"/>
  </g>
  <g>
    <path class="cls-4" d="m269.05,226.07c3.22,0,3.22-5,0-5s-3.22,5,0,5h0Z"/>
    <path class="cls-4" d="m299.45,256.47c3.22,0,3.22-5,0-5s-3.22,5,0,5h0Z"/>
    <path class="cls-4" d="m269.05,286.88c3.22,0,3.22-5,0-5s-3.22,5,0,5h0Z"/>
    <path class="cls-4" d="m238.64,256.47c3.22,0,3.22-5,0-5s-3.22,5,0,5h0Z"/>
    <path class="cls-4" d="m269.05,255.1c1.45,0,1.45-2.25,0-2.25s-1.45,2.25,0,2.25h0Z"/>
  </g>
  <g>
    <path class="cls-4" d="m359.05,226.07c3.22,0,3.22-5,0-5s-3.22,5,0,5h0Z"/>
    <path class="cls-4" d="m389.45,256.47c3.22,0,3.22-5,0-5s-3.22,5,0,5h0Z"/>
    <path class="cls-4" d="m359.05,286.88c3.22,0,3.22-5,0-5s-3.22,5,0,5h0Z"/>
    <path class="cls-4" d="m328.64,256.47c3.22,0,3.22-5,0-5s-3.22,5,0,5h0Z"/>
    <path class="cls-4" d="m359.05,255.1c1.45,0,1.45-2.25,0-2.25s-1.45,2.25,0,2.25h0Z"/>
  </g>
  <path class="cls-5" d="m295.85,248.29v6c0,.49-.4.91-.9.91s-.91-.41-.91-.91v-2s-22.19,0-22.19,0c-.49,0-.89-.4-.89-.89v-.33c0-.48.4-.89.89-.89h22.19s0-1.9,0-1.9c0-.5.41-.91.91-.91s.9.4.9.91Z"/>
  <path class="cls-6" d="m357.13,259.66v-6c0-.49-.4-.91-.9-.91s-.91.41-.91.91v2s-22.19,0-22.19,0c-.49,0-.89.4-.89.89v.33c0,.48.4.89.89.89h22.19s0,1.9,0,1.9c0,.5.41.91.91.91s.9-.4.9-.91Z"/>
  <path class="cls-5" d="m332.24,248.29v6c0,.49.4.91.9.91s.91-.41.91-.91v-2s22.19,0,22.19,0c.49,0,.89-.4.89-.89v-.33c0-.48-.4-.89-.89-.89h-22.19s0-1.9,0-1.9c0-.5-.41-.91-.91-.91s-.9.4-.9.91Z"/>
  <path class="cls-5" d="m92.05,370.9h-6c-.49,0-.91-.4-.91-.9s.41-.91.91-.91h2s0-22.19,0-22.19c0-.49.4-.89.89-.89h.33c.48,0,.89.4.89.89v22.19s1.9,0,1.9,0c.5,0,.91.41.91.91s-.4.9-.91.9Z"/>
  <path class="cls-6" d="m274.73,342.05h-6c-.49,0-.91-.4-.91-.9s.41-.91.91-.91h2s0-22.19,0-22.19c0-.49.4-.89.89-.89h.33c.48,0,.89.4.89.89v22.19s1.9,0,1.9,0c.5,0,.91.41.91.91s-.4.9-.91.9Z"/>
  <path class="cls-6" d="m86.04,317.05h6c.49,0,.91.4.91.9s-.41.91-.91.91h-2s0,22.19,0,22.19c0,.49-.4.89-.89.89h-.33c-.48,0-.89-.4-.89-.89v-22.19s-1.9,0-1.9,0c-.5,0-.91-.41-.91-.91s.4-.9.91-.9Z"/>
  <path class="cls-5" d="m152.12,346.97v-6c0-.49.4-.91.9-.91s.91.41.91.91v2s22.19,0,22.19,0c.49,0,.89.4.89.89v.33c0,.48-.4.89-.89.89h-22.19s0,1.9,0,1.9c0,.5-.41.91-.91.91s-.9-.4-.9-.91Z"/>
  <path class="cls-6" d="m205.97,340.97v6c0,.49-.4.91-.9.91s-.91-.41-.91-.91v-2s-22.19,0-22.19,0c-.49,0-.89-.4-.89-.89v-.33c0-.48.4-.89.89-.89h22.19s0-1.9,0-1.9c0-.5.41-.91.91-.91s.9.4.9.91Z"/>
  <path class="cls-6" d="m364.75,366.32c-.06-.9-.48-3.27.04-4.39.22-.47.97-.54,1.39-.9l.29,4.21c9.61-13.99,9.13-33.63-1.69-47.84-.44-.58-.42-1.53.02-1.85.25-.21,1.07-.53,1.68.25,11.52,14.73,12.07,36.15,1.85,50.98l3.93-.34c-.14.59-.34,1.2-.7,1.44-1.03.69-3.66.73-4.3.69s-1.86-.2-2.03-.23"/>
  <path class="cls-5" d="m353.34,366.32c.06-.9.48-3.27-.04-4.39-.22-.47-.97-.54-1.39-.9l-.29,4.21c-9.61-13.99-9.13-33.63,1.69-47.84.44-.58.42-1.53-.02-1.85-.25-.21-1.07-.53-1.68.25-11.52,14.73-12.07,36.15-1.85,50.98l-3.93-.34c.14.59.34,1.2.7,1.44,1.03.69,3.66.73,4.3.69s1.86-.2,2.03-.23"/>
  <path class="cls-5" d="m83.63,368.46c-.59-.68-1.97-2.66-3.12-3.09-.48-.18-1.07.31-1.62.34l2.87,3.45c-8.92-.27-18.97-7.83-19.77-20.44-.1-.75-.53-1.25-1.44-1.16-.96.09-.96.47-.87,1.45,1.13,11.95,9.85,22.05,22.1,22.05l-3.37,2.76c.52.32,1.08.61,1.51.53,1.22-.24,3.11-2.06,3.54-2.54s1.18-1.46,1.28-1.59"/>
  <path class="cls-6" d="m203.06,338.42c-.68-.59-2.66-1.97-3.09-3.12-.18-.48.31-1.07.34-1.62l3.45,2.87c-.27-8.92-7.83-18.97-20.44-19.77-.75-.1-1.25-.53-1.16-1.44.09-.96.47-.96,1.45-.87,11.95,1.13,22.05,9.85,22.05,22.1l2.76-3.37c.32.52.61,1.08.53,1.51-.24,1.22-2.06,3.11-2.54,3.54s-1.46,1.18-1.59,1.28"/>
  <path class="cls-5" d="m263.93,323.72s1.1-1.04.5-1.87c-.85-1.18-4.08-3.95-4.08-3.95,0,0-3.77,3.01-4.46,3.95-.6.82.86,1.44.86,1.44l2.73-2.21c-.05,14.88-2.93,17.49-19.45,17.19-.39-.08-.59.96-.65,1.2s.22.79.61.88c18.04.41,21.82-3.56,21.17-19.28"/>
  <path class="cls-6" d="m274.16,323.72s-1.1-1.04-.5-1.87c.85-1.18,4.08-3.95,4.08-3.95,0,0,3.77,3.01,4.46,3.95.6.82-.86,1.44-.86,1.44l-2.73-2.21c.05,14.88,2.93,17.49,19.45,17.19.39-.08.59.96.65,1.2s-.22.79-.61.88c-18.04.41-21.82-3.56-21.17-19.28"/>
  <g>
    <path class="cls-4" d="m58.64,346.47c3.22,0,3.22-5,0-5s-3.22,5,0,5h0Z"/>
    <path class="cls-4" d="m89.05,316.07c3.22,0,3.22-5,0-5s-3.22,5,0,5h0Z"/>
    <path class="cls-4" d="m119.45,346.47c3.22,0,3.22-5,0-5s-3.22,5,0,5h0Z"/>
    <path class="cls-4" d="m89.05,376.88c3.22,0,3.22-5,0-5s-3.22,5,0,5h0Z"/>
    <path class="cls-4" d="m89.05,345.1c1.45,0,1.45-2.25,0-2.25s-1.45,2.25,0,2.25h0Z"/>
  </g>
  <g>
    <path class="cls-4" d="m148.64,346.47c3.22,0,3.22-5,0-5s-3.22,5,0,5h0Z"/>
    <path class="cls-4" d="m179.05,316.07c3.22,0,3.22-5,0-5s-3.22,5,0,5h0Z"/>
    <path class="cls-4" d="m209.45,346.47c3.22,0,3.22-5,0-5s-3.22,5,0,5h0Z"/>
    <path class="cls-4" d="m179.05,376.88c3.22,0,3.22-5,0-5s-3.22,5,0,5h0Z"/>
    <path class="cls-4" d="m179.05,345.1c1.45,0,1.45-2.25,0-2.25s-1.45,2.25,0,2.25h0Z"/>
  </g>
  <g>
    <path class="cls-4" d="m238.64,346.47c3.22,0,3.22-5,0-5s-3.22,5,0,5h0Z"/>
    <path class="cls-4" d="m269.05,316.07c3.22,0,3.22-5,0-5s-3.22,5,0,5h0Z"/>
    <path class="cls-4" d="m299.45,346.47c3.22,0,3.22-5,0-5s-3.22,5,0,5h0Z"/>
    <path class="cls-4" d="m269.05,376.88c3.22,0,3.22-5,0-5s-3.22,5,0,5h0Z"/>
    <path class="cls-4" d="m269.05,345.1c1.45,0,1.45-2.25,0-2.25s-1.45,2.25,0,2.25h0Z"/>
  </g>
  <g>
    <path class="cls-4" d="m328.64,346.47c3.22,0,3.22-5,0-5s-3.22,5,0,5h0Z"/>
    <path class="cls-4" d="m359.05,316.07c3.22,0,3.22-5,0-5s-3.22,5,0,5h0Z"/>
    <path class="cls-4" d="m389.45,346.47c3.22,0,3.22-5,0-5s-3.22,5,0,5h0Z"/>
    <path class="cls-4" d="m359.05,376.88c3.22,0,3.22-5,0-5s-3.22,5,0,5h0Z"/>
    <path class="cls-4" d="m359.05,345.1c1.45,0,1.45-2.25,0-2.25s-1.45,2.25,0,2.25h0Z"/>
  </g>
  <path class="cls-5" d="m269.36,342.05h-6c-.49,0-.91-.4-.91-.9s.41-.91.91-.91h2s0-22.19,0-22.19c0-.49.4-.89.89-.89h.33c.48,0,.89.4.89.89v22.19s1.9,0,1.9,0c.5,0,.91.41.91.91s-.4.9-.91.9Z"/>
  <path class="cls-6" d="m364.73,345.89h-6c-.49,0-.91.4-.91.9s.41.91.91.91h2s0,22.19,0,22.19c0,.49.4.89.89.89h.33c.48,0,.89-.4.89-.89v-22.19s1.9,0,1.9,0c.5,0,.91-.41.91-.91s-.4-.9-.91-.9Z"/>
  <path class="cls-5" d="m359.36,345.89h-6c-.49,0-.91.4-.91.9s.41.91.91.91h2s0,22.19,0,22.19c0,.49.4.89.89.89h.33c.48,0,.89-.4.89-.89v-22.19s1.9,0,1.9,0c.5,0,.91-.41.91-.91s-.4-.9-.91-.9Z"/>
  <path class="cls-4" d="m182.64,106.82c.41.54-.07,1.1-.49,1.3-8.95,4.44-8.64-9.21-3.2-8.89,1.05.06,2,.83,2.34,1.23.24.29.43.79.12,1.13-.33.35-.78.24-1,0-4.23-4.46-6.5,8.86,1.09,5.13.44-.22.77-.39,1.14.08Z"/>
  <path class="cls-4" d="m85.34,99.83c4.37-1.23,7.49.31,7.54,3.51.1,5.84-7.12,5.72-7.42,5.37-.18-.68-.8-5.16-.12-8.88Zm1.52,7.25c3.72-.43,4.82-1.95,4.47-4.26s-4.06-1.95-4.58-1.7c-.24,3.39-.19,4.11.1,5.97Z"/>
  <path class="cls-4" d="m267.42,105.19c0,1.55,0,2.06,0,2.96,0,.63-.27.75-.76.75s-.89-.28-.89-.83c0-1.1-.04-5.88-.04-8.17,0-.5.33-.54.62-.54.39,0,.82.14.82.55,0,.97.08,3.02.08,3.02,0,0,1.78-1.67,2.39-2.31.39-.42.96-.48,1.24-.13s.44.57-.09,1.1c-.81.8-.99,1.16-2.35,2.41.79.82,2.08,1.9,3.44,3.46.43.49.33,1.08.16,1.24s-.76.22-1.14-.16-1.83-2-3.48-3.34Z"/>
  <path class="cls-4" d="m363.79,100.28c-.55,2.78-1.08,3.77-3.79,4.29-.09.02-.17.09-.18.18,0,0,0,.02,0,.03v4.09c0,.23-.1.45-.25.61-.15.15-.36.25-.6.25s-.45-.1-.62-.25c-.15-.15-.25-.37-.25-.61v-4.09s0-.02,0-.03c0-.09-.09-.16-.18-.18-2.71-.53-3.24-1.51-3.79-4.29-.19-.91.32-1.09.66-1.09.45,0,.75.91.77,1.04.3,2.03.88,2.76,2.34,2.72.08,0,.16-.06.19-.14,0-.02.02-.05.02-.08v-3.37s0-.03,0-.05c.11-.32.2-.52.32-.64.06-.06.14-.1.21-.12.05-.02.1-.03.15-.04.06,0,.11,0,.18,0,.06,0,.11,0,.16,0,.05,0,.1.02.15.04.08.02.15.06.21.12.12.12.21.32.32.64,0,.02,0,.03,0,.05v3.37s0,.06,0,.08c.03.08.11.13.19.14,1.46.04,2.04-.69,2.34-2.72.02-.14.32-1.05.77-1.04.35,0,.85.19.66,1.09Z"/>
  <rect class="cls-4" x="365.1" y="103.17" width="6.95" height="1.9" rx=".95" ry=".95"/>
  <rect class="cls-4" x="365.1" y="293.17" width="6.95" height="1.9" rx=".95" ry=".95"/>
  <path class="cls-4" d="m359.05,113.34c1.45,0,1.45-2.25,0-2.25s-1.45,2.25,0,2.25h0Z"/>
  <path class="cls-4" d="m359.05,303.34c1.45,0,1.45-2.25,0-2.25s-1.45,2.25,0,2.25h0Z"/>
  <path class="cls-4" d="m182.64,196.82c.41.54-.07,1.1-.49,1.3-8.95,4.44-8.64-9.21-3.2-8.89,1.05.06,2,.83,2.34,1.23.24.29.43.79.12,1.13-.33.35-.78.24-1,0-4.23-4.46-6.5,8.86,1.09,5.13.44-.22.77-.39,1.14.08Z"/>
  <path class="cls-4" d="m85.34,189.83c4.37-1.23,7.49.31,7.54,3.51.1,5.84-7.12,5.72-7.42,5.37-.18-.68-.8-5.16-.12-8.88Zm1.52,7.25c3.72-.43,4.82-1.95,4.47-4.26s-4.06-1.95-4.58-1.7c-.24,3.39-.19,4.11.1,5.97Z"/>
  <path class="cls-4" d="m267.42,195.19c0,1.55,0,2.06,0,2.96,0,.63-.27.75-.76.75s-.89-.28-.89-.83c0-1.1-.04-5.88-.04-8.17,0-.5.33-.54.62-.54.39,0,.82.14.82.55,0,.97.08,3.02.08,3.02,0,0,1.78-1.67,2.39-2.31.39-.42.96-.48,1.24-.13s.44.57-.09,1.1c-.81.8-.99,1.16-2.35,2.41.79.82,2.08,1.9,3.44,3.46.43.49.33,1.08.16,1.24s-.76.22-1.14-.16-1.83-2-3.48-3.34Z"/>
  <path class="cls-4" d="m363.79,190.28c-.55,2.78-1.08,3.77-3.79,4.29-.09.02-.17.09-.18.18,0,0,0,.02,0,.03v4.09c0,.23-.1.45-.25.61-.15.15-.36.25-.6.25s-.45-.1-.62-.25c-.15-.15-.25-.37-.25-.61v-4.09s0-.02,0-.03c0-.09-.09-.16-.18-.18-2.71-.53-3.24-1.51-3.79-4.29-.19-.91.32-1.09.66-1.09.45,0,.75.91.77,1.04.3,2.03.88,2.76,2.34,2.72.08,0,.16-.06.19-.14,0-.02.02-.05.02-.08v-3.37s0-.03,0-.05c.11-.32.2-.52.32-.64.06-.06.14-.1.21-.12.05-.02.1-.03.15-.04.06,0,.11,0,.18,0,.06,0,.11,0,.16,0,.05,0,.1.02.15.04.08.02.15.06.21.12.12.12.21.32.32.64,0,.02,0,.03,0,.05v3.37s0,.06,0,.08c.03.08.11.13.19.14,1.46.04,2.04-.69,2.34-2.72.02-.14.32-1.05.77-1.04.35,0,.85.19.66,1.09Z"/>
  <rect class="cls-4" x="363.83" y="193.2" width="6.95" height="1.9" rx=".95" ry=".95"/>
  <path class="cls-4" d="m359.05,203.34c1.45,0,1.45-2.25,0-2.25s-1.45,2.25,0,2.25h0Z"/>
  <path class="cls-4" d="m182.64,296.82c.41.54-.07,1.1-.49,1.3-8.95,4.44-8.64-9.21-3.2-8.89,1.05.06,2,.83,2.34,1.23.24.29.43.79.12,1.13-.33.35-.78.24-1,0-4.23-4.46-6.5,8.86,1.09,5.13.44-.22.77-.39,1.14.08Z"/>
  <path class="cls-4" d="m85.34,289.83c4.37-1.23,7.49.31,7.54,3.51.1,5.84-7.12,5.72-7.42,5.37-.18-.68-.8-5.16-.12-8.88Zm1.52,7.25c3.72-.43,4.82-1.95,4.47-4.26s-4.06-1.95-4.58-1.7c-.24,3.39-.19,4.11.1,5.97Z"/>
  <path class="cls-4" d="m267.42,295.19c0,1.55,0,2.06,0,2.96,0,.63-.27.75-.76.75s-.89-.28-.89-.83c0-1.1-.04-5.88-.04-8.17,0-.5.33-.54.62-.54.39,0,.82.14.82.55,0,.97.08,3.02.08,3.02,0,0,1.78-1.67,2.39-2.31.39-.42.96-.48,1.24-.13s.44.57-.09,1.1c-.81.8-.99,1.16-2.35,2.41.79.82,2.08,1.9,3.44,3.46.43.49.33,1.08.16,1.24s-.76.22-1.14-.16-1.83-2-3.48-3.34Z"/>
  <path class="cls-4" d="m363.79,290.28c-.55,2.78-1.08,3.77-3.79,4.29-.09.02-.17.09-.18.18,0,0,0,.02,0,.03v4.09c0,.23-.1.45-.25.61-.15.15-.36.25-.6.25s-.45-.1-.62-.25c-.15-.15-.25-.37-.25-.61v-4.09s0-.02,0-.03c0-.09-.09-.16-.18-.18-2.71-.53-3.24-1.51-3.79-4.29-.19-.91.32-1.09.66-1.09.45,0,.75.91.77,1.04.3,2.03.88,2.76,2.34,2.72.08,0,.16-.06.19-.14,0-.02.02-.05.02-.08v-3.37s0-.03,0-.05c.11-.32.2-.52.32-.64.06-.06.14-.1.21-.12.05-.02.1-.03.15-.04.06,0,.11,0,.18,0,.06,0,.11,0,.16,0,.05,0,.1.02.15.04.08.02.15.06.21.12.12.12.21.32.32.64,0,.02,0,.03,0,.05v3.37s0,.06,0,.08c.03.08.11.13.19.14,1.46.04,2.04-.69,2.34-2.72.02-.14.32-1.05.77-1.04.35,0,.85.19.66,1.09Z"/>
  <path class="cls-4" d="m182.64,386.82c.41.54-.07,1.1-.49,1.3-8.95,4.44-8.64-9.21-3.2-8.89,1.05.06,2,.83,2.34,1.23.24.29.43.79.12,1.13-.33.35-.78.24-1,0-4.23-4.46-6.5,8.86,1.09,5.13.44-.22.77-.39,1.14.08Z"/>
  <path class="cls-4" d="m85.34,379.83c4.37-1.23,7.49.31,7.54,3.51.1,5.84-7.12,5.72-7.42,5.37-.18-.68-.8-5.16-.12-8.88Zm1.52,7.25c3.72-.43,4.82-1.95,4.47-4.26s-4.06-1.95-4.58-1.7c-.24,3.39-.19,4.11.1,5.97Z"/>
  <path class="cls-4" d="m267.42,385.19c0,1.55,0,2.06,0,2.96,0,.63-.27.75-.76.75s-.89-.28-.89-.83c0-1.1-.04-5.88-.04-8.17,0-.5.33-.54.62-.54.39,0,.82.14.82.55,0,.97.08,3.02.08,3.02,0,0,1.78-1.67,2.39-2.31.39-.42.96-.48,1.24-.13s.44.57-.09,1.1c-.81.8-.99,1.16-2.35,2.41.79.82,2.08,1.9,3.44,3.46.43.49.33,1.08.16,1.24s-.76.22-1.14-.16-1.83-2-3.48-3.34Z"/>
  <path class="cls-4" d="m363.79,380.28c-.55,2.78-1.08,3.77-3.79,4.29-.09.02-.17.09-.18.18,0,0,0,.02,0,.03v4.09c0,.23-.1.45-.25.61-.15.15-.36.25-.6.25s-.45-.1-.62-.25c-.15-.15-.25-.37-.25-.61v-4.09s0-.02,0-.03c0-.09-.09-.16-.18-.18-2.71-.53-3.24-1.51-3.79-4.29-.19-.91.32-1.09.66-1.09.45,0,.75.91.77,1.04.3,2.03.88,2.76,2.34,2.72.08,0,.16-.06.19-.14,0-.02.02-.05.02-.08v-3.37s0-.03,0-.05c.11-.32.2-.52.32-.64.06-.06.14-.1.21-.12.05-.02.1-.03.15-.04.06,0,.11,0,.18,0,.06,0,.11,0,.16,0,.05,0,.1.02.15.04.08.02.15.06.21.12.12.12.21.32.32.64,0,.02,0,.03,0,.05v3.37s0,.06,0,.08c.03.08.11.13.19.14,1.46.04,2.04-.69,2.34-2.72.02-.14.32-1.05.77-1.04.35,0,.85.19.66,1.09Z"/>
  <rect class="cls-4" x="363.83" y="383.17" width="6.95" height="1.9" rx=".95" ry=".95"/>
  <path class="cls-4" d="m359.05,393.34c1.45,0,1.45-2.25,0-2.25s-1.45,2.25,0,2.25h0Z"/>
  <path class="cls-5" d="m201.6,148.74s.76,1.14,1.57.52c1.15-.89,3.85-4.4,3.85-4.4,0,0-3.41-4.05-4.48-4.52-.47-.2-.99,1.12-.99,1.12l2.22,2.7c-8.49.9-9.16-3.56-7.5-10.24-5.25,2.1-11.96,3.78-11.73-8.59-.07-.69-.48-.82-.72-.81s-.9.52-.93,1.15c-.61,8.36,3.06,13.16,10.68,11.15-.03,7.39,2.02,9.19,10.2,9.27"/>
  <path class="cls-6" d="m96.53,154.81c.71.55,2.74,1.12,3.23,2.25.21.47.04.96-.25,1.53l-3.57-2.12c2.88,12.9,16.38,11.1,18.06-1.36.1-.75.71-1.33,1.28-1.21.49.11.95.42.8,1.4-2.39,15.28-18.92,16.18-22.05,1.68l-1.88,3.47c-.34-.5-.69-.72-.76-1.48-.05-.52,1.15-3.03,1.8-3.8.88-1.05,1.39-1.25,1.52-1.36"/>
  <path class="cls-5" d="m157.86,348.02s-.76-1.14-1.57-.52c-1.15.89-3.85,4.4-3.85,4.4,0,0,3.41,4.05,4.48,4.52.47.2.99-1.12.99-1.12l-2.22-2.7c8.49-.9,9.16,3.56,7.5,10.24,5.25-2.1,11.96-3.78,11.73,8.59.07.69.48.82.72.81s.9-.52.93-1.15c.61-8.36-3.06-13.16-10.68-11.15.03-7.39-2.02-9.19-10.2-9.27"/>
  <path class="cls-6" d="m81.45,340.93c-.71-.55-2.74-1.12-3.23-2.25-.21-.47-.04-.96.25-1.53l3.57,2.12c-2.88-12.9-16.38-11.1-18.06,1.36-.1.75-.71,1.33-1.28,1.21-.49-.11-.95-.42-.8-1.4,2.39-15.28,18.92-16.18,22.05-1.68l1.88-3.47c.34.5.69.72.76,1.48.05.52-1.15,3.03-1.8,3.8-.88,1.05-1.39,1.25-1.52,1.36"/>
  <path class="cls-5" d="m174.99,233.16s1.14-.76.52-1.57c-.89-1.15-4.4-3.85-4.4-3.85,0,0-4.05,3.41-4.52,4.48-.2.47,1.12.99,1.12.99l2.7-2.22c.9,8.49-3.56,9.16-10.24,7.5,2.1,5.25,3.78,11.96-8.59,11.73-.69.07-.82.48-.81.72s.52.9,1.15.93c8.36.61,13.16-3.06,11.15-10.68,7.39.03,9.19-2.02,9.27-10.2"/>
  <path class="cls-5" d="m184.98,86.91s-1.14.76-.52,1.57c.89,1.15,4.4,3.85,4.4,3.85,0,0,4.05-3.41,4.52-4.48.2-.47-1.12-.99-1.12-.99l-2.7,2.22c-.9-8.49,3.56-9.16,10.24-7.5-2.1-5.25-3.78-11.96,8.59-11.73.69-.07.82-.48.81-.72s-.52-.9-1.15-.93c-8.36-.61-13.16,3.06-11.15,10.68-7.39-.03-9.19,2.02-9.27,10.2"/>
  <path class="cls-6" d="m93.89,244.92c.55-.71,1.12-2.74,2.25-3.23.47-.21.96-.04,1.53.25l-2.12,3.57c12.9-2.88,11.1-16.38-1.36-18.06-.75-.1-1.33-.71-1.21-1.28.11-.49.42-.95,1.4-.8,15.28,2.39,16.18,18.92,1.68,22.05l3.47,1.88c-.5.34-.72.69-1.48.76-.52.05-3.03-1.15-3.8-1.8-1.05-.88-1.25-1.39-1.36-1.52"/>
  <path class="cls-6" d="m84.56,73.03c-.55.71-1.12,2.74-2.25,3.23-.47.21-.96.04-1.53-.25l2.12-3.57c-12.9,2.88-11.1,16.38,1.36,18.06.75.1,1.33.71,1.21,1.28-.11.49-.42.95-1.4.8-15.28-2.39-16.18-18.92-1.68-22.05l-3.47-1.88c.5-.34.72-.69,1.48-.76.52-.05,3.03,1.15,3.8,1.8,1.05.88,1.25,1.39,1.36,1.52"/>
  <path d="m97.64,101.62v.9h-3.3v-.9h1.08v-2.56h-1.08v-.94l.36-.04c.25-.02.41-.03.78-.13s.64-.24.64-.24h.44v3.9h1.08Z"/>
  <path d="m185.42,107.06h-1.08v-.94l.36-.04c.25-.02.41-.03.78-.13s.64-.24.64-.24h.44v3.9h1.08v.9h-3.3v-.9h1.08"/>
  <path d="m376.72,109.62v.9h-3.3v-.9h1.08v-2.56h-1.08v-.94l.36-.04c.25-.02.41-.03.78-.13s.64-.24.64-.24h.44v3.9h1.08Z"/>
  <path d="m376.72,101.62v.9h-3.3v-.9h1.08v-2.56h-1.08v-.94l.36-.04c.25-.02.41-.03.78-.13s.64-.24.64-.24h.44v3.9h1.08Z"/>
  <path d="m97.64,191.62v.9h-3.3v-.9h1.08v-2.56h-1.08v-.94l.36-.04c.25-.02.41-.03.78-.13s.64-.24.64-.24h.44v3.9h1.08Z"/>
  <path d="m187.64,199.62v.9h-3.3v-.9h1.08v-2.56h-1.08v-.94l.36-.04c.25-.02.41-.03.78-.13s.64-.24.64-.24h.44v3.9h1.08Z"/>
  <path d="m375.52,191.62v.9h-3.3v-.9h1.08v-2.56h-1.08v-.94l.36-.04c.25-.02.41-.03.78-.13s.64-.24.64-.24h.44v3.9h1.08Z"/>
  <path d="m375.52,199.62v.9h-3.3v-.9h1.08v-2.56h-1.08v-.94l.36-.04c.25-.02.41-.03.78-.13s.64-.24.64-.24h.44v3.9h1.08Z"/>
  <path d="m97.64,291.62v.9h-3.3v-.9h1.08v-2.56h-1.08v-.94l.36-.04c.25-.02.41-.03.78-.13s.64-.24.64-.24h.44v3.9h1.08Z"/>
  <path d="m185.42,297.06h-1.08v-.94l.36-.04c.25-.02.41-.03.78-.13s.64-.24.64-.24h.44v3.9h1.08v.9h-3.3v-.9h1.08"/>
  <path d="m376.72,299.62v.9h-3.3v-.9h1.08v-2.56h-1.08v-.94l.36-.04c.25-.02.41-.03.78-.13s.64-.24.64-.24h.44v3.9h1.08Z"/>
  <path d="m376.72,291.62v.9h-3.3v-.9h1.08v-2.56h-1.08v-.94l.36-.04c.25-.02.41-.03.78-.13s.64-.24.64-.24h.44v3.9h1.08Z"/>
  <path d="m97.64,381.62v.9h-3.3v-.9h1.08v-2.56h-1.08v-.94l.36-.04c.25-.02.41-.03.78-.13s.64-.24.64-.24h.44v3.9h1.08Z"/>
  <path d="m187.64,389.62v.9h-3.3v-.9h1.08v-2.56h-1.08v-.94l.36-.04c.25-.02.41-.03.78-.13s.64-.24.64-.24h.44v3.9h1.08Z"/>
  <path d="m375.52,381.62v.9h-3.3v-.9h1.08v-2.56h-1.08v-.94l.36-.04c.25-.02.41-.03.78-.13s.64-.24.64-.24h.44v3.9h1.08Z"/>
  <path d="m375.52,389.62v.9h-3.3v-.9h1.08v-2.56h-1.08v-.94l.36-.04c.25-.02.41-.03.78-.13s.64-.24.64-.24h.44v3.9h1.08Z"/>
  <g>
    <path class="cls-4" d="m20.05,47.5c0-.46.04-.82.11-1.1.07-.28.17-.54.31-.77.14-.23.33-.47.56-.7.24-.23.54-.47.9-.71l.3.4c-.21.19-.38.38-.51.57-.13.2-.25.44-.35.73-.1.29-.17.59-.21.91-.04.32-.06.54-.06.68h-1.05Zm2.28,0c0-.46.04-.82.11-1.1.07-.28.18-.54.31-.77.14-.23.33-.47.56-.7.24-.23.54-.47.9-.71l.3.4c-.21.19-.38.38-.51.57-.13.2-.25.44-.35.73-.1.29-.17.59-.21.91-.04.32-.06.54-.06.68h-1.05Z"/>
    <path class="cls-4" d="m28.13,49.17c-.05-.41-.17-.71-.35-.89-.19-.18-.47-.28-.86-.28-.21,0-.41.04-.58.12-.17.08-.31.2-.41.35-.1.15-.15.33-.15.54,0,.17.03.32.1.46.07.14.18.28.34.43.16.15.39.32.68.52.44.3.75.58.93.86.18.28.27.6.27.96,0,.43-.1.79-.31,1.09-.21.3-.49.52-.84.67-.36.15-.76.22-1.2.22-.4,0-.78-.03-1.12-.09-.35-.06-.69-.13-1.01-.23l.32-1.48h.53c.03.42.15.73.36.94.21.21.51.31.91.31s.72-.1.95-.3c.23-.2.34-.47.34-.8,0-.2-.03-.37-.1-.53-.07-.16-.18-.3-.32-.44-.15-.14-.35-.3-.62-.49-.29-.2-.52-.38-.7-.55-.18-.17-.32-.36-.41-.57-.1-.21-.15-.44-.15-.69,0-.38.09-.71.28-.98.19-.28.45-.49.8-.64.34-.15.75-.22,1.21-.22.75,0,1.42.1,1.99.29l-.31,1.41h-.55Z"/>
    <path class="cls-4" d="m31.76,54.23c-.71,0-1.25-.2-1.64-.59-.39-.4-.58-.97-.58-1.71,0-.27.03-.59.1-.96.09-.48.21-.9.37-1.27.21-.46.47-.86.79-1.19.32-.33.69-.59,1.11-.77.42-.17.87-.26,1.34-.26.52,0,.95.1,1.29.3.33.2.58.47.73.82.15.34.23.74.23,1.19,0,.41-.06.84-.17,1.3-.16.67-.4,1.25-.72,1.72-.31.47-.71.83-1.18,1.07-.47.24-1.03.37-1.65.37Zm-1.03-2.01c0,.5.1.87.31,1.11.21.24.52.36.94.36.45,0,.84-.2,1.19-.6.35-.4.62-.96.82-1.69.2-.72.3-1.36.3-1.9,0-.49-.1-.86-.29-1.11-.19-.25-.49-.37-.9-.37-.47,0-.89.2-1.24.59-.35.4-.63.96-.83,1.7-.2.74-.3,1.37-.3,1.91Z"/>
    <path class="cls-4" d="m18.35,64.32h.41l-.48,1.68.08.03c.43-.6.86-1.04,1.27-1.33.41-.29.84-.43,1.28-.43.33,0,.61.02.83.08l-.33,1.53h-.7c-.04-.24-.09-.42-.17-.54s-.2-.18-.36-.18c-.18,0-.38.09-.62.27-.23.18-.47.43-.71.75-.24.32-.42.61-.54.88-.12.27-.21.57-.28.9l-.62,2.96h-1.18l1.04-4.67c.1-.43.14-.75.14-.98,0-.13-.02-.23-.06-.3-.04-.07-.11-.12-.2-.16s-.25-.06-.46-.07l.08-.36,1.59-.06Z"/>
    <path class="cls-4" d="m23.47,69.21c-.05.23-.08.4-.1.51-.01.11-.02.2-.02.27,0,.14.02.24.07.32.05.08.12.14.21.18s.25.07.47.1l-.06.33h-2.12l1.03-4.61c.06-.26.1-.48.12-.63s.03-.29.03-.39c0-.13-.02-.24-.06-.31-.04-.07-.1-.13-.2-.16-.09-.04-.25-.06-.47-.07l.08-.36,1.67-.06h.4l-1.07,4.89Zm1.69-7.51l-.31,1.33h-1.21l.31-1.33h1.21Z"/>
    <path class="cls-4" d="m29.64,65.97c-.05-.41-.17-.71-.35-.89-.19-.18-.47-.28-.86-.28-.21,0-.41.04-.58.12-.17.08-.31.2-.41.35-.1.15-.15.33-.15.54,0,.17.03.32.1.46.07.14.18.28.34.43.16.15.39.32.68.52.44.3.75.58.93.86.18.28.27.6.27.96,0,.43-.1.79-.31,1.09-.21.3-.49.52-.84.67-.36.15-.76.22-1.2.22-.4,0-.78-.03-1.12-.09-.35-.06-.69-.13-1.01-.23l.32-1.48h.53c.03.42.15.73.36.94.21.21.51.31.91.31s.72-.1.95-.3c.23-.2.34-.47.34-.8,0-.2-.03-.37-.1-.53-.07-.16-.18-.3-.32-.44-.15-.14-.35-.3-.62-.49-.29-.2-.52-.38-.7-.55-.18-.17-.32-.36-.41-.57-.1-.21-.15-.44-.15-.69,0-.38.09-.71.28-.98.19-.28.45-.49.8-.64.34-.15.75-.22,1.21-.22.75,0,1.42.1,1.99.29l-.31,1.41h-.55Z"/>
    <path class="cls-4" d="m36.04,69.56c-.34.37-.66.66-.97.88-.31.21-.62.37-.93.46-.31.09-.65.14-1.03.14s-.67-.06-.93-.17-.47-.28-.65-.48c-.17-.2-.3-.44-.38-.72s-.12-.58-.12-.91c0-.49.09-1.01.26-1.57.17-.56.44-1.06.8-1.5s.78-.79,1.28-1.03c.5-.24,1.03-.37,1.59-.37s.96.11,1.24.33c.28.22.41.57.41,1.05,0,.77-.36,1.36-1.09,1.74-.73.39-1.81.58-3.24.58-.05.27-.08.57-.08.89,0,.48.09.83.28,1.04.19.22.49.33.92.33s.8-.09,1.14-.27c.34-.18.7-.46,1.07-.84l.42.44Zm-3.64-2.17c.42,0,.79-.03,1.1-.07.32-.04.59-.1.82-.18s.42-.17.57-.27c.15-.11.27-.22.36-.35.09-.12.15-.26.18-.4.04-.14.05-.28.05-.43,0-.28-.07-.5-.19-.65-.13-.16-.32-.24-.58-.24-.32,0-.63.12-.94.34-.31.23-.58.54-.81.93-.23.39-.42.83-.56,1.31Z"/>
    <path class="cls-4" d="m40.32,61.13c0,.46-.04.83-.11,1.11s-.18.54-.32.77c-.14.24-.33.47-.57.7s-.53.47-.88.7l-.3-.4c.2-.18.37-.37.51-.57.14-.2.25-.44.35-.73.1-.29.17-.59.21-.91.04-.32.06-.55.06-.69h1.05Zm2.28,0c0,.46-.04.83-.11,1.11s-.18.54-.32.77c-.14.24-.33.47-.57.7s-.53.47-.88.7l-.3-.4c.2-.18.37-.37.51-.57.14-.2.25-.44.35-.73.1-.29.17-.59.21-.91.04-.32.07-.55.07-.69h1.05Z"/>
  </g>
  <text class="cls-2" transform="translate(15.91 37.35)"><tspan x="0" y="0">0:31</tspan></text>
</svg>